{
	"asset":{
		"generator":"Khronos glTF Blender I/O v4.5.48",
		"version":"2.0"
	},
	"scene":0,
	"scenes":[
		{
			"name":"Scene",
			"nodes":[
				0,
				2,
				3,
				4,
				5,
				7,
				8,
				10
			]
		}
	],
	"nodes":[
		{
			"camera":0,
			"name":"Camera",
			"rotation":[
				-0.009708299301564693,
				0.8746392130851746,
				0.15581421554088593,
				0.4589487314224243
			],
			"translation":[
				12.360542297363281,
				7.2591938972473145,
				-7.770749568939209
			]
		},
		{
			"mesh":0,
			"name":"GN Instance"
		},
		{
			"children":[
				1
			],
			"name":"Mball",
			"scale":[
				1.1439999341964722,
				0.8600000143051147,
				0.6699000000953674
			],
			"translation":[
				-0.23999997973442078,
				1.877295970916748,
				0
			]
		},
		{
			"name":"Mball.001",
			"scale":[
				1,
				0.8999999761581421,
				1
			],
			"translation":[
				2.0581319332122803,
				4.262148857116699,
				0
			]
		},
		{
			"name":"Mball.002",
			"scale":[
				1,
				0.5100000500679016,
				1.5699999332427979
			],
			"translation":[
				3.1681315898895264,
				4.262148857116699,
				0
			]
		},
		{
			"name":"Mball.003",
			"rotation":[
				0,
				0,
				-0.7071068286895752,
				0.7071068286895752
			],
			"scale":[
				0.8899999856948853,
				0.7100000381469727,
				1.2599999904632568
			],
			"translation":[
				-2.299999952316284,
				3.8500001430511475,
				0
			]
		},
		{
			"mesh":1,
			"name":"GN Instance"
		},
		{
			"children":[
				6
			],
			"name":"eye2",
			"scale":[
				0.5,
				0.5,
				0.5
			],
			"translation":[
				2.748990774154663,
				4.989928245544434,
				-0.7589340209960938
			]
		},
		{
			"name":"Mball.006",
			"scale":[
				1.1400001049041748,
				0.6399999856948853,
				1.0800000429153442
			],
			"translation":[
				0.3399999737739563,
				2.4100000858306885,
				0
			]
		},
		{
			"mesh":2,
			"name":"GN Instance"
		},
		{
			"children":[
				9
			],
			"name":"eye1",
			"scale":[
				0.5,
				0.5,
				0.5
			],
			"translation":[
				2.748990774154663,
				4.989928245544434,
				0.7589340209960938
			]
		}
	],
	"cameras":[
		{
			"name":"Camera",
			"perspective":{
				"aspectRatio":1.7777777777777777,
				"yfov":0.39959652046304894,
				"zfar":100,
				"znear":0.10000000149011612
			},
			"type":"perspective"
		}
	],
	"materials":[
		{
			"doubleSided":true,
			"name":"Material.001",
			"pbrMetallicRoughness":{
				"baseColorTexture":{
					"index":0
				},
				"metallicFactor":0,
				"roughnessFactor":0
			}
		},
		{
			"doubleSided":true,
			"name":"Material.002",
			"pbrMetallicRoughness":{
				"baseColorTexture":{
					"index":1
				},
				"roughnessFactor":0
			}
		}
	],
	"meshes":[
		{
			"name":"Mesh",
			"primitives":[
				{
					"attributes":{
						"POSITION":0,
						"NORMAL":1
					},
					"indices":2,
					"material":0
				}
			]
		},
		{
			"name":"Mesh",
			"primitives":[
				{
					"attributes":{
						"POSITION":3,
						"NORMAL":4
					},
					"indices":5,
					"material":1
				}
			]
		},
		{
			"name":"Mesh",
			"primitives":[
				{
					"attributes":{
						"POSITION":6,
						"NORMAL":7
					},
					"indices":5,
					"material":1
				}
			]
		}
	],
	"textures":[
		{
			"sampler":0,
			"source":0
		},
		{
			"sampler":1,
			"source":1
		}
	],
	"images":[
		{
			"mimeType":"image/png",
			"name":"roundDuckColour",
			"uri":"tex/roundDuckColour.png"
		},
		{
			"mimeType":"image/png",
			"name":"duckEyes",
			"uri":"tex/duckEyes.png"
		}
	],
	"accessors":[
		{
			"bufferView":0,
			"componentType":5126,
			"count":1022,
			"max":[
				3.92107892036438,
				4.22318172454834,
				3.008575916290283
			],
			"min":[
				-2.188319206237793,
				-2.1509602069854736,
				-3.008575916290283
			],
			"type":"VEC3"
		},
		{
			"bufferView":1,
			"componentType":5126,
			"count":1022,
			"type":"VEC3"
		},
		{
			"bufferView":2,
			"componentType":5123,
			"count":6120,
			"type":"SCALAR"
		},
		{
			"bufferView":3,
			"componentType":5126,
			"count":144,
			"max":[
				0.26205071806907654,
				0.26205071806907654,
				0.26205071806907654
			],
			"min":[
				-0.26205071806907654,
				-0.26205071806907654,
				-0.26205071806907654
			],
			"type":"VEC3"
		},
		{
			"bufferView":4,
			"componentType":5126,
			"count":144,
			"type":"VEC3"
		},
		{
			"bufferView":5,
			"componentType":5123,
			"count":852,
			"type":"SCALAR"
		},
		{
			"bufferView":6,
			"componentType":5126,
			"count":144,
			"max":[
				0.26205071806907654,
				0.26205071806907654,
				0.26205071806907654
			],
			"min":[
				-0.26205071806907654,
				-0.26205071806907654,
				-0.26205071806907654
			],
			"type":"VEC3"
		},
		{
			"bufferView":7,
			"componentType":5126,
			"count":144,
			"type":"VEC3"
		}
	],
	"bufferViews":[
		{
			"buffer":0,
			"byteLength":12264,
			"byteOffset":0,
			"target":34962
		},
		{
			"buffer":0,
			"byteLength":12264,
			"byteOffset":12264,
			"target":34962
		},
		{
			"buffer":0,
			"byteLength":12240,
			"byteOffset":24528,
			"target":34963
		},
		{
			"buffer":0,
			"byteLength":1728,
			"byteOffset":36768,
			"target":34962
		},
		{
			"buffer":0,
			"byteLength":1728,
			"byteOffset":38496,
			"target":34962
		},
		{
			"buffer":0,
			"byteLength":1704,
			"byteOffset":40224,
			"target":34963
		},
		{
			"buffer":0,
			"byteLength":1728,
			"byteOffset":41928,
			"target":34962
		},
		{
			"buffer":0,
			"byteLength":1728,
			"byteOffset":43656,
			"target":34962
		}
	],
	"samplers":[
		{
			"magFilter":9729,
			"minFilter":9987,
			"wrapS":33071,
			"wrapT":33071
		},
		{
			"magFilter":9729,
			"minFilter":9987
		}
	],
	"buffers":[
		{
			"byteLength":45384,
			"uri":"roundDuck.bin"
		}
	]
}
